<?xml version="1.0" encoding="utf-8"?>
<!-- Generator: Adobe Illustrator 26.4.1, SVG Export Plug-In . SVG Version: 6.00 Build 0)  -->
<svg version="1.1" id="Outline" xmlns="http://www.w3.org/2000/svg" x="0px" y="0px"
     viewBox="0 0 512 512" style="enable-background:new 0 0 512 512;" xml:space="preserve">
<style type="text/css">
	.st0{fill:#FFFFFF;}
</style>
<path class="st0" d="M256,213.3c-47.1,0-85.3,38.2-85.3,85.3S208.9,384,256,384s85.3-38.2,85.3-85.3S303.1,213.3,256,213.3z
	 M256,341.3c-23.6,0-42.7-19.1-42.7-42.7S232.4,256,256,256s42.7,19.1,42.7,42.7S279.6,341.3,256,341.3z"/>
<path class="st0" d="M480.8,87.9l-56.7-56.7C404.1,11.2,377-0.1,348.7,0h-242C47.8,0.1,0.1,47.8,0,106.7v298.7
	C0.1,464.2,47.8,511.9,106.7,512h298.7c58.9-0.1,106.6-47.8,106.7-106.7v-242C512.1,135,500.8,107.9,480.8,87.9z M362.7,44.4V64
	c0,35.3-28.7,64-64,64h-85.3c-35.3,0-64-28.7-64-64V42.7h199.3C353.4,42.7,358.1,43.3,362.7,44.4z M469.3,405.3
	c0,35.3-28.7,64-64,64H106.7c-35.3,0-64-28.7-64-64V106.7c0-35.3,28.7-64,64-64V64c0.1,58.9,47.8,106.6,106.7,106.7h85.3
	c55.6-0.2,101.8-43.2,105.9-98.6l46.1,46.1c12,12,18.7,28.3,18.7,45.2V405.3z"/>
</svg>
