<svg xmlns="http://www.w3.org/2000/svg" viewBox="0 0 48 48" width="48px" height="48px">
  <path d="M 24 10 C 17.72 10 12.551969 14.85 12.042969 21 L 11.5 21 C 6.813 21 3 24.813 3 29.5 C 3 34.187 6.813 38 11.5 38 L 16.634766 38 C 16.225766 37.417 16 36.727 16 36 C 16 35.065 16.364391 34.186391 17.025391 33.525391 C 17.686391 32.864391 18.565 32.5 19.5 32.5 C 19.844 32.5 20.18 32.549531 20.5 32.644531 L 20.5 25.5 C 20.5 23.57 22.07 22 24 22 C 25.93 22 27.5 23.57 27.5 25.5 L 27.5 32.644531 C 27.82 32.549531 28.156 32.5 28.5 32.5 C 29.435 32.5 30.314609 32.864391 30.974609 33.525391 C 31.636609 34.186391 32 35.065 32 36 C 32 36.727 31.774234 37.417 31.365234 38 L 36.5 38 C 41.187 38 45 34.187 45 29.5 C 45 24.813 41.187 21 36.5 21 L 35.957031 21 C 35.448031 14.85 30.28 10 24 10 z M 23.976562 23.978516 A 1.50015 1.50015 0 0 0 22.5 25.5 L 22.5 36.878906 L 20.560547 34.939453 A 1.50015 1.50015 0 1 0 18.439453 37.060547 L 22.810547 41.431641 A 1.50015 1.50015 0 0 0 25.197266 41.423828 L 29.560547 37.060547 A 1.50015 1.50015 0 1 0 27.439453 34.939453 L 25.5 36.878906 L 25.5 25.5 A 1.50015 1.50015 0 0 0 23.976562 23.978516 z" fill="#FFFFFF" />
</svg>