<?xml version="1.0" encoding="utf-8"?>
<!-- Generator: Adobe Illustrator 26.4.1, SVG Export Plug-In . SVG Version: 6.00 Build 0)  -->
<svg version="1.1" id="Outline" xmlns="http://www.w3.org/2000/svg" x="0px" y="0px"
     viewBox="0 0 512 512" style="enable-background:new 0 0 512 512;" xml:space="preserve">
<style type="text/css">
	.st0{fill:#FFFFFF;}
</style>
<path class="st0" d="M198.1,278.8c-49.4,9.5-73.9,64.6-84.5,98.9c-3.5,11.2,2.7,23.2,14,26.7c2.1,0.7,4.2,1,6.4,1h79.3
	c35.3,0,64-28.6,64-64c0-2-0.1-3.9-0.3-5.9c-4.5-36.3-37.7-62.1-74-57.5C201.4,278.2,199.8,278.4,198.1,278.8z"/>
<path class="st0" d="M490.7,191.6c-11.8,0-21.3,9.6-21.3,21.3V320H384c-35.3,0-64,28.7-64,64v85.3H106.7c-35.3,0-64-28.7-64-64
	V106.7c0-35.3,28.7-64,64-64h235.6c11.8,0,21.3-9.6,21.3-21.3S354,0,342.2,0H106.7C47.8,0.1,0.1,47.8,0,106.7v298.7
	C0.1,464.2,47.8,511.9,106.7,512h242c28.3,0.1,55.5-11.2,75.4-31.2l56.7-56.7c20.1-20,31.3-47.1,31.2-75.4V212.9
	C512,201.1,502.4,191.6,490.7,191.6z M393.9,450.6c-8.6,8.5-19.4,14.4-31.2,17.1V384c0-11.8,9.6-21.3,21.3-21.3h83.7
	c-2.6,11.8-8.6,22.6-17.1,31.2L393.9,450.6z"/>
<path class="st0" d="M310.7,302.3c-11.8,0-21.3-9.6-21.3-21.3c0-5.7,2.2-11.1,6.2-15.1L463.2,98.3c7.9-7.8,7.9-20.6,0-28.5
	c0,0,0,0,0,0c-3.9-4-9.3-6.1-14.8-5.9c-5.5,0.1-10.8,2.5-14.5,6.7L271.8,250c-7.9,8.7-21.4,9.4-30.1,1.5c-8.7-7.9-9.4-21.4-1.5-30.1
	L402.3,42.2c11.5-12.8,27.7-20.4,44.9-20.9c17.2-0.4,33.9,6.3,46.1,18.4c24.5,24.5,24.5,64.3,0,88.8L325.8,296.1
	C321.8,300.1,316.4,302.3,310.7,302.3z"/>
</svg>
