<?xml version="1.0" encoding="utf-8"?>
<!-- Generator: Adobe Illustrator 26.4.1, SVG Export Plug-In . SVG Version: 6.00 Build 0)  -->
<svg version="1.1" id="Bold" xmlns="http://www.w3.org/2000/svg" x="0px" y="0px"
     viewBox="0 0 512 512" style="enable-background:new 0 0 512 512;" xml:space="preserve">
<style type="text/css">
	.st0{fill:#FFFFFF;}
</style>
<path class="st0" d="M19.5,226.1l198.1,118.8c23.6,14.2,53.2,14.2,76.8,0l198.1-118.8c18.8-11.3,24.9-35.7,13.6-54.5
	c-3.4-5.6-8-10.3-13.6-13.6l-198.1-119c-23.6-14.2-53.2-14.2-76.8,0l0,0L19.5,157.9C0.7,169.1-5.5,193.5,5.8,212.3
	c3.4,5.6,8,10.3,13.6,13.6V226.1z M250.5,93.9c3.4-2,7.6-2,11,0L424.9,192l-163.4,98.1c-3.4,2-7.6,2-11,0L87.1,192L250.5,93.9z"/>
<path class="st0" d="M283.4,401.7c-16.9,10.1-38,10.1-54.9,0L48.5,293.7c-15.2-9.1-34.8-4.2-43.9,11c-3,5-4.6,10.7-4.6,16.5l0,0
	c0,11.2,5.9,21.7,15.5,27.4l180.1,108c37.1,22.4,83.6,22.4,120.7,0l180.1-108.1c9.6-5.8,15.5-16.2,15.5-27.4l0,0
	c0-17.7-14.3-32-32-32c-5.8,0-11.5,1.6-16.5,4.6L283.4,401.7z"/>
</svg>
