<?xml version="1.0" encoding="utf-8"?>
<!-- Generator: Adobe Illustrator 26.4.1, SVG Export Plug-In . SVG Version: 6.00 Build 0)  -->
<svg version="1.1" id="Isolation_Mode" xmlns="http://www.w3.org/2000/svg" xmlns:xlink="http://www.w3.org/1999/xlink" x="0px"
	 y="0px" viewBox="0 0 512 512" style="enable-background:new 0 0 512 512;" xml:space="preserve">
<style type="text/css">
	.st0{fill:#FFFFFF;}
</style>
<path class="st0" d="M426.7,406.5V105.1h85.1L415.2,8.5c-11.5-11.4-30-11.4-41.5,0l-96.6,96.5h85.6v301.5h-86.2l97,96.9
	c11.5,11.5,30.1,11.5,41.6,0c0,0,0,0,0,0l96.9-96.9H426.7z"/>
<path class="st0" d="M0,64v170.7h234.7V0H64C28.7,0,0,28.7,0,64z M64,64h106.7v106.7H64V64z"/>
<path class="st0" d="M0,448c0,35.3,28.7,64,64,64h170.7V277.3H0V448z M64,341.3h106.7V448H64V341.3z"/>
</svg>
