<?xml version="1.0" encoding="utf-8"?>
<!-- Generator: Adobe Illustrator 26.4.1, SVG Export Plug-In . SVG Version: 6.00 Build 0)  -->
<svg version="1.1" id="arrow-circle-down" xmlns="http://www.w3.org/2000/svg" xmlns:xlink="http://www.w3.org/1999/xlink" x="0px"
	 y="0px" viewBox="0 0 512 512" style="enable-background:new 0 0 512 512;" xml:space="preserve">
<style type="text/css">
	.st0{fill:#FFFFFF;stroke:#000000;stroke-miterlimit:10;}
</style>
<path class="st0" d="M441.6,101l34,34c8.4,8.3,21.9,8.3,30.2-0.1c4-4,6.2-9.3,6.2-15V21.8c0-11.8-9.6-21.3-21.3-21.3h-98.3
	c-11.8,0-21.3,9.6-21.3,21.4c0,5.6,2.2,11,6.2,15l34.1,34L256,226.1L100.5,70.6l34.2-34.1c8.3-8.3,8.4-21.8,0-30.2
	c-4-4-9.4-6.3-15.1-6.3L21.3,0C9.6,0,0,9.6,0,21.4v98.1c-0.1,11.8,9.4,21.4,21.2,21.4c5.7,0,11.2-2.2,15.2-6.3l33.9-33.8
	l155.5,155.4L70.5,411.5l-34.1-34c-8.4-8.3-21.9-8.3-30.2,0.1c-4,4-6.2,9.4-6.2,15v98.1C0,502.4,9.6,512,21.3,512h98.3
	c11.8-0.1,21.3-9.7,21.2-21.5c0-5.5-2.2-10.8-6.1-14.8l-34-34.1L256,286.4l155.3,155.2l-34.1,34.1c-8.2,8.4-8.1,21.9,0.3,30.2
	c4,3.9,9.3,6.1,14.8,6.1h98.2c11.8,0,21.3-9.6,21.3-21.3v-98.1c0-11.8-9.6-21.3-21.3-21.3c-5.7,0-11.1,2.2-15.1,6.2l-33.9,34
	L286.2,256.2L441.6,101z"/>
</svg>
