<?xml version="1.0" encoding="utf-8"?>
<!-- Generator: Adobe Illustrator 26.4.1, SVG Export Plug-In . SVG Version: 6.00 Build 0)  -->
<svg version="1.1" id="Layer_1" xmlns="http://www.w3.org/2000/svg" xmlns:xlink="http://www.w3.org/1999/xlink" x="0px" y="0px"
	 viewBox="0 0 512 512" style="enable-background:new 0 0 512 512;" xml:space="preserve">
<style type="text/css">
	.st0{fill:#FFFFFF;}
</style>
<path class="st0" d="M405.3,512h-384C9.6,512,0,502.4,0,490.7c0-11.7,9.6-21.3,21.3-21.3h384c35.2,0,64-28.8,64-64v-384
	c0-11.7,9.6-21.3,21.3-21.3C502.4,0,512,9.6,512,21.3v384C512,464.2,464.2,512,405.3,512z M0,138.7c0,17.7,14.3,32,32,32
	s32-14.3,32-32s-14.3-32-32-32S0,121,0,138.7z M0,373.3c0,17.7,14.3,32,32,32s32-14.3,32-32s-14.3-32-32-32S0,355.6,0,373.3z M0,32
	c0,17.7,14.3,32,32,32s32-14.3,32-32S49.7,0,32,0S0,14.3,0,32z M106.7,32c0,17.7,14.3,32,32,32s32-14.3,32-32s-14.3-32-32-32
	S106.7,14.3,106.7,32z M224,32c0,17.7,14.3,32,32,32s32-14.3,32-32S273.7,0,256,0S224,14.3,224,32z M341.3,32c0,17.7,14.3,32,32,32
	s32-14.3,32-32S391,0,373.3,0S341.3,14.3,341.3,32z M0,256c0,17.7,14.3,32,32,32s32-14.3,32-32s-14.3-32-32-32S0,238.3,0,256z"/>
</svg>
