<?xml version="1.0" encoding="utf-8"?>
<!-- Generator: Adobe Illustrator 26.4.1, SVG Export Plug-In . SVG Version: 6.00 Build 0)  -->
<svg version="1.1" id="Layer_1" xmlns="http://www.w3.org/2000/svg" x="0px" y="0px"
     viewBox="0 0 512 512" style="enable-background:new 0 0 512 512;" xml:space="preserve">
<style type="text/css">
	.st0{fill:#FFFFFF;}
</style>
<path class="st0" d="M341.3,341.3c0,11.8-9.6,21.3-21.3,21.3h-42.7v42.7c0,11.8-9.6,21.3-21.3,21.3c-11.8,0-21.3-9.6-21.3-21.3
	v-42.7H192c-11.8,0-21.3-9.6-21.3-21.3S180.2,320,192,320h42.7v-42.7c0-11.8,9.6-21.3,21.3-21.3c11.8,0,21.3,9.6,21.3,21.3V320H320
	C331.8,320,341.3,329.6,341.3,341.3z M469.3,223.7v181.7c-0.1,58.9-47.8,106.6-106.7,106.7H149.3c-58.9-0.1-106.6-47.8-106.7-106.7
	V106.7C42.7,47.8,90.5,0.1,149.3,0h96.3c39.6-0.1,77.6,15.6,105.6,43.7l74.3,74.4C453.7,146,469.4,184.1,469.3,223.7z M321.1,73.9
	c-6.7-6.5-14.3-12.1-22.4-16.6v92.1c0,11.8,9.6,21.3,21.3,21.3h92.1c-4.5-8.2-10.1-15.7-16.7-22.4L321.1,73.9z M426.7,223.7
	c0-3.5-0.7-6.9-1-10.3H320c-35.3,0-64-28.7-64-64V43.7c-3.5-0.3-6.8-1-10.3-1h-96.3c-35.3,0-64,28.7-64,64v298.7
	c0,35.3,28.7,64,64,64h213.3c35.3,0,64-28.7,64-64V223.7z"/>
</svg>
