<?xml version="1.0" encoding="UTF-8"?>
<!DOCTYPE svg PUBLIC "-//W3C//DTD SVG 1.1//EN" "http://www.w3.org/Graphics/SVG/1.1/DTD/svg11.dtd">
<!-- Creator: CorelDRAW 2019 (64-Bit) -->
<svg xmlns="http://www.w3.org/2000/svg" xml:space="preserve" width="112.554mm" height="19.1965mm" version="1.1" style="shape-rendering:geometricPrecision; text-rendering:geometricPrecision; image-rendering:optimizeQuality; fill-rule:evenodd; clip-rule:evenodd"
viewBox="0 0 4867.01 830.09"
 xmlns:xlink="http://www.w3.org/1999/xlink"
 xmlns:xodm="http://www.corel.com/coreldraw/odm/2003">
 <defs>
  <style type="text/css">
   <![CDATA[
    .fil0 {fill:#0}
   ]]>
  </style>
 </defs>
 <g id="Слой_x0020_1">
  <metadata id="CorelCorpID_0Corel-Layer"/>
  <path class="fil0" d="M830.08 511.87l-318.22 318.22 -74.48 0 392.7 -392.71 0 74.49zm0 159.11l-159.11 159.11 -74.5 0 233.6 -233.6 0 74.5zm0 -477.3l-636.41 636.41 -74.49 0 710.9 -710.92 0 74.51zm-74.5 636.41l74.5 -74.5 0 74.5 -74.5 0zm-755.59 -830.09l830.08 0 -830.08 830.09 0 -830.09zm830.08 352.77l-477.31 477.31 -74.5 0 551.81 -551.81 0 74.5z"/>
  <path class="fil0" d="M1473.92 596.88l-41.12 0c-3.81,0 -6.94,-2.94 -7.26,-6.67l-29.21 -211.76 -110.21 226.87c-1.74,3.61 -6.09,5.13 -9.7,3.38 -1.53,-0.74 -2.67,-1.97 -3.35,-3.39l-0.03 0.01 -110.08 -226.42 -28.9 211.66c-0.5,3.65 -3.61,6.29 -7.2,6.27l0 0.05 -41.2 0c-4.02,0 -7.29,-3.26 -7.29,-7.29 0,-0.39 0.05,-0.79 0.11,-1.15l52.88 -361.67c0.59,-3.97 4.29,-6.72 8.27,-6.14 2.73,0.4 4.88,2.24 5.78,4.66l134.2 278.07 134.63 -278.7c1.75,-3.6 6.1,-5.12 9.71,-3.38 2.26,1.1 3.71,3.18 4.04,5.49l0 0.06 0.03 0.24 53.1 361.47c0.59,3.97 -2.16,7.67 -6.14,8.25 -0.36,0.05 -0.7,0.07 -1.06,0.07l0 0.02zm2537.84 -182.01c0,27.9 -4.71,53.42 -14.15,76.55 -9.46,23.19 -23.66,43.94 -42.59,62.25 -18.51,17.9 -39.25,31.35 -62.19,40.31 -22.92,8.96 -47.99,13.44 -75.21,13.44 -27.21,0 -52.28,-4.48 -75.15,-13.44 -22.93,-8.97 -43.62,-22.43 -62.03,-40.34 -18.84,-18.3 -32.99,-39.05 -42.42,-62.22 -9.42,-23.14 -14.13,-48.65 -14.13,-76.55 0,-27.89 4.71,-53.41 14.13,-76.54 9.44,-23.17 23.59,-43.92 42.42,-62.21 18.4,-17.83 39.1,-31.23 62.05,-40.17 22.89,-8.91 47.95,-13.39 75.14,-13.39 27.2,0 52.26,4.48 75.19,13.4 22.95,8.93 43.7,22.32 62.22,40.13 18.93,18.3 33.13,39.05 42.59,62.24 9.44,23.12 14.15,48.64 14.15,76.55zm-59.54 0c0,-20.54 -3.2,-39.2 -9.6,-55.93 -6.37,-16.65 -15.95,-31.48 -28.69,-44.46 -12.74,-12.96 -27.14,-22.68 -43.13,-29.17 -16.08,-6.5 -33.82,-9.77 -53.18,-9.77l0 0.03c-19.34,0 -37.01,3.25 -52.98,9.73 -15.94,6.47 -30.29,16.21 -43.01,29.18 -12.71,12.98 -22.25,27.82 -28.62,44.45 -6.43,16.79 -9.63,35.46 -9.63,55.96 0,20.35 3.22,38.94 9.66,55.71 6.36,16.6 15.94,31.46 28.71,44.52 12.77,13.12 27.14,22.95 43.05,29.49 15.92,6.54 33.55,9.82 52.84,9.82 38.47,0 70.54,-13.1 96.12,-39.3l0.03 -0.03c12.8,-13.07 22.43,-27.96 28.83,-44.57 6.44,-16.72 9.66,-35.29 9.66,-55.66l-0.04 0zm-2056.99 -0.04c0,27.91 -4.71,53.41 -14.14,76.55 -9.46,23.19 -23.65,43.95 -42.59,62.25 -18.5,17.89 -39.25,31.35 -62.19,40.31 -22.92,8.96 -47.99,13.44 -75.22,13.44 -27.2,0 -52.26,-4.49 -75.15,-13.44 -22.92,-8.97 -43.61,-22.43 -62.03,-40.34 -18.85,-18.3 -33,-39.05 -42.43,-62.23 -9.41,-23.13 -14.14,-48.64 -14.14,-76.55 0,-27.9 4.73,-53.42 14.14,-76.54 9.43,-23.17 23.59,-43.92 42.43,-62.21 18.39,-17.83 39.09,-31.24 62.04,-40.18 22.9,-8.91 47.95,-13.38 75.14,-13.38 27.22,0 52.27,4.47 75.2,13.4 22.95,8.92 43.7,22.31 62.21,40.12 18.94,18.3 33.13,39.05 42.59,62.23 9.44,23.13 14.14,48.65 14.14,76.55zm-59.53 0c0,-20.55 -3.21,-39.2 -9.6,-55.93 -6.37,-16.65 -15.93,-31.48 -28.68,-44.46 -12.75,-12.96 -27.14,-22.69 -43.15,-29.17 -16.07,-6.51 -33.81,-9.76 -53.18,-9.76l0 0.02c-19.33,0 -37,3.25 -52.98,9.73 -15.93,6.47 -30.28,16.22 -43,29.19 -12.71,12.98 -22.27,27.81 -28.62,44.45 -6.42,16.78 -9.63,35.45 -9.63,55.94 0,20.35 3.22,38.95 9.64,55.72 6.37,16.6 15.95,31.46 28.71,44.52 12.77,13.13 27.14,22.96 43.06,29.5 15.92,6.53 33.56,9.8 52.83,9.8 38.48,0 70.54,-13.1 96.13,-39.29l0.03 -0.03c12.81,-13.07 22.44,-27.95 28.83,-44.57 6.44,-16.71 9.67,-35.3 9.67,-55.65l-0.04 0zm407.51 0c0,24.25 -3.56,46.59 -10.66,66.92 -7.15,20.45 -17.88,38.88 -32.15,55.24l-0.08 0.11 -0.06 0.08c-17.4,19.96 -38.92,34.91 -64.53,44.86 -25.45,9.89 -54.89,14.84 -88.29,14.84l0 -0.03 -93.23 -0c-4.01,0 -7.26,-3.26 -7.26,-7.26l-0.02 0 0 -349.36c0,-4.03 3.26,-7.29 7.28,-7.29l0.75 0.03 92.48 0.01 0 -0.03c31.29,0 59.19,4.48 83.69,13.45 24.71,9.03 45.92,22.6 63.63,40.67 16.19,16.53 28.34,35.51 36.42,56.89 8.03,21.29 12.06,44.92 12.06,70.86l-0.02 0zm-59.05 -0.08c0,-20.64 -2.98,-38.98 -8.92,-54.99 -5.82,-15.73 -14.57,-29.22 -26.19,-40.39 -11.94,-11.45 -26.49,-20.06 -43.62,-25.8 -17.37,-5.84 -37.52,-8.75 -60.4,-8.75l-41.62 0 0 259.71 40.52 0 0 0.03c24.65,0 46.09,-3.16 64.31,-9.44 17.85,-6.16 32.63,-15.41 44.34,-27.69 10.42,-10.95 18.3,-24.08 23.56,-39.35 5.32,-15.49 7.99,-33.28 7.99,-53.31l0.04 0zm308.79 182.13l-190.6 0c-4.01,0 -7.27,-3.26 -7.27,-7.29l0.02 -0.5 0.01 -348.86c0,-4 3.25,-7.25 7.26,-7.25l190.59 -0.01c4,0 7.26,3.25 7.26,7.26l0.01 37.3c0,4.02 -3.26,7.26 -7.27,7.26l0 0.02 -140.91 0 0 88.93 130.97 0c4.03,0 7.29,3.26 7.29,7.29l-0.03 0.73 -0.01 35.85c0,4.02 -3.26,7.27 -7.26,7.27l0 0.03 -130.95 0 0 119.62 140.89 0c4.02,0 7.28,3.26 7.28,7.29l-0.01 0.74 -0.01 37.04c0,4.01 -3.25,7.26 -7.26,7.26l0 0.03zm289.46 -0.04l-51.95 0.01c-2.56,0 -4.81,-1.35 -6.1,-3.37l-0.02 0 -100.39 -157.72 -12.78 0.01 0 153.81c0,4.01 -3.25,7.26 -7.26,7.26l0 0.03 -42.39 0c-4.04,0 -7.29,-3.26 -7.29,-7.29l0 -349.36c0,-4.03 3.26,-7.29 7.29,-7.29l0.74 0.03 96.22 0.01 0 -0.03c37.31,0 65.54,8.46 84.67,25.33l0.02 -0.02c19.41,17.12 29.11,42.44 29.11,75.92l-0.03 0c-0.01,30.67 -8.47,54.53 -25.36,71.6 -14.61,14.75 -35.32,24.12 -62.09,28.14l103.62 151.56c2.26,3.33 1.42,7.86 -1.89,10.11 -1.28,0.86 -2.69,1.25 -4.11,1.25l0 0.01zm-69.25 -262.67c0,-16.86 -4.59,-29.33 -13.74,-37.38 -9.43,-8.3 -24.04,-12.45 -43.8,-12.45l-44.45 0 0 101.52 44.45 0.01 0 -0.03 0.03 0 0 0.03c19.68,0 34.27,-4.31 43.69,-12.86 9.21,-8.38 13.82,-21.32 13.82,-38.8l0 -0.03zm403.15 273.29l-241.92 -257.03 -0 239.16c0,4.01 -3.25,7.26 -7.26,7.26l0 0.03 -41.28 0c-4.03,0 -7.29,-3.26 -7.29,-7.29l0 -361.93c0,-4.03 3.26,-7.3 7.29,-7.3 2.33,0 4.42,1.09 5.76,2.8l241.69 256.09 -0.01 -239.28c0,-4 3.26,-7.25 7.26,-7.25l0.39 0 40.66 0c4,0 7.27,3.25 7.27,7.25l0 362.49c0,4.01 -3.26,7.26 -7.27,7.26 -2.07,0 -3.96,-0.88 -5.29,-2.28l0 0.01zm493.1 -35.79c-15.84,11.79 -33.93,20.67 -54.22,26.58 -20.3,5.92 -42.78,8.89 -67.38,8.89 -27.4,0 -52.43,-4.67 -75.1,-13.97 -22.72,-9.34 -42.97,-23.31 -60.69,-41.91 -17.29,-18.15 -30.29,-38.67 -38.95,-61.49 -8.62,-22.7 -12.92,-47.69 -12.93,-74.93 0.01,-26.52 4.56,-51.12 13.65,-73.77 9.11,-22.69 22.78,-43.41 40.98,-62.16 18.16,-18.75 38.45,-32.83 60.81,-42.24 22.4,-9.42 46.8,-14.14 73.11,-14.14 23.83,0 45.86,3 66.02,8.99 20.28,6.01 38.64,15.06 55.05,27.13 1.94,1.42 2.94,3.63 2.94,5.86l0.06 0 0 48.67c0,4.02 -3.27,7.28 -7.29,7.28 -2,0 -3.82,-0.81 -5.12,-2.11 -15.93,-14.3 -33.11,-25.01 -51.59,-32.11 -18.58,-7.14 -38.61,-10.71 -60.08,-10.71 -17.23,0 -33.34,3.42 -48.32,10.27 -15.1,6.91 -29.21,17.34 -42.3,31.25 -13.13,13.92 -22.98,29.03 -29.5,45.3 -6.52,16.24 -9.79,33.74 -9.79,52.47l-0.03 0c0,19.45 3.04,37.42 9.12,53.85 6.03,16.35 15.11,31.19 27.16,44.53l0.02 -0.02c12.41,13.61 26.34,23.81 41.81,30.57 15.47,6.77 32.63,10.17 51.45,10.17 20.84,0 40.64,-3.55 59.34,-10.62 18.75,-7.09 36.47,-17.75 53.12,-31.93 3.03,-2.6 7.64,-2.25 10.24,0.8 1.18,1.37 1.72,3.04 1.72,4.71l0.06 0 0 48.7c0,2.56 -1.34,4.81 -3.35,6.1zm711.58 -97.66c0,19.28 -2.92,36.81 -8.76,52.55l-0.22 0.48 -0.06 0.14 -0.03 0.06c-5.9,15.62 -14.66,29.45 -26.26,41.49l0 0c-12.32,12.92 -26.84,22.6 -43.53,29.04 -16.55,6.39 -35.17,9.59 -55.85,9.59l0 -0.03c-20.76,0 -39.39,-3.19 -55.91,-9.56 -16.71,-6.45 -31.22,-16.12 -43.54,-29.04l-0.08 -0.08 -0.17 -0.19 -0.01 -0.02c-11.68,-12.18 -20.47,-26.14 -26.3,-41.87l-0.21 -0.66c-5.73,-15.64 -8.59,-32.95 -8.59,-51.92l0.04 0 0 -233.77c0,-4.01 3.24,-7.26 7.25,-7.26l0 -0.03 42.4 0c4.03,0 7.29,3.27 7.29,7.29l0 233.79c0,11.73 1.65,22.35 4.92,31.82l0.12 0.46c3.23,9.15 8.02,17.33 14.35,24.47l0.02 0.01 0.01 -0.01c6.92,7.84 15.18,13.73 24.74,17.63 9.82,4.01 21.07,6.02 33.68,6.02 12.58,0 23.83,-2.02 33.68,-6.03 9.6,-3.91 17.93,-9.8 24.92,-17.65l0.29 -0.32c6.25,-7.17 11.01,-15.37 14.19,-24.58 3.27,-9.49 4.92,-20.12 4.92,-31.82l0 -233.79c0,-4.03 3.26,-7.29 7.28,-7.29l0.36 0 41.8 0c4.02,0 7.27,3.27 7.27,7.29l0 233.79zm283.43 -139.84c0,34.08 -9.6,59.82 -28.76,77.21 -18.99,17.23 -47.02,25.84 -84.08,25.84l0 -0.03 -47.3 0 0 152.38c0,4.01 -3.25,7.26 -7.26,7.26l0 0.03 -42.41 0c-4.02,0 -7.28,-3.26 -7.28,-7.29l0 -0.38 0 -348.98c0,-4.03 3.26,-7.29 7.28,-7.29l0.38 0 96.59 0c37.04,0 65.06,8.47 84.04,25.36 19.2,17.1 28.81,42.42 28.81,75.88zm-58.17 0c0,-16.86 -4.58,-29.31 -13.73,-37.38 -9.42,-8.3 -24.04,-12.45 -43.82,-12.45l-44.4 0 0 101.53 44.4 -0.01 0 -0.03c19.74,0 34.33,-4.28 43.73,-12.84 9.21,-8.36 13.82,-21.32 13.82,-38.82zm313.45 262.71l-190.57 0c-4.03,0 -7.29,-3.26 -7.29,-7.29l0.03 -0.75 -0.01 -348.61c0,-4.01 3.25,-7.26 7.26,-7.26l0 -0.03 190.58 0c4.02,0 7.29,3.27 7.29,7.29l0 37.3c0,4.02 -3.27,7.29 -7.29,7.29l-140.93 0 0 88.93 130.99 0c4.02,0 7.29,3.26 7.29,7.29l-0.03 0.48 -0.02 36.09c0,4.02 -3.25,7.27 -7.26,7.27l0 0.03 -130.97 0 0.01 119.62 140.93 0c4.02,0 7.29,3.26 7.29,7.29l-0.03 0.48 -0.01 37.3c0,4.01 -3.25,7.26 -7.26,7.26l0 0.03z"/>
 </g>
</svg>
