<?xml version="1.0" encoding="utf-8"?>
<!-- Generator: Adobe Illustrator 26.4.1, SVG Export Plug-In . SVG Version: 6.00 Build 0)  -->
<svg version="1.1" id="Filled" xmlns="http://www.w3.org/2000/svg" xmlns:xlink="http://www.w3.org/1999/xlink" x="0px" y="0px"
	 viewBox="0 0 512 512" style="enable-background:new 0 0 512 512;" xml:space="preserve">
<style type="text/css">
	.st0{fill:#FFFFFF;}
</style>
<path class="st0" d="M427.9,358.4l2.1,2.1c9.8,9.9,24.1,14.1,37.7,11.1c13.4-2.8,24.5-12.3,29.4-25.1c11.8-30.9,17.4-63.9,16.6-96.9
	c-5-134.7-112.4-243.2-247-249.5C125.4-4.8,6.8,105.8,1.9,247.1c-0.1,3-0.2,5.9-0.2,8.9c0.2,141.3,114.7,255.8,256,256
	c7.2,0,14.3-0.5,21.3-1.1c11.1-0.9,19.6-10.2,19.5-21.3l-0.7-76.5c-0.5-42,33.2-76.5,75.2-77C393.7,335.9,413.4,343.9,427.9,358.4z
	 M365.1,171.7c17.1-4.5,34.6,5.6,39.1,22.7c4.5,17.1-5.6,34.6-22.7,39.1c-17.1,4.5-34.6-5.6-39.1-22.7
	C337.9,193.8,348,176.3,365.1,171.7C365.1,171.7,365.1,171.7,365.1,171.7z M168.2,361.6c-17.1,4.5-34.6-5.6-39.1-22.7
	c-4.5-17.1,5.6-34.6,22.7-39.1c17.1-4.5,34.6,5.6,39.1,22.7C195.5,339.5,185.3,357.1,168.2,361.6
	C168.2,361.6,168.2,361.6,168.2,361.6z M168.2,233.6c-17.1,4.5-34.6-5.6-39.1-22.7c-4.5-17.1,5.6-34.6,22.7-39.1
	c17.1-4.5,34.6,5.6,39.1,22.7C195.5,211.5,185.3,229.1,168.2,233.6C168.2,233.6,168.2,233.6,168.2,233.6L168.2,233.6z M274.9,169.6
	c-17.1,4.5-34.6-5.6-39.1-22.7c-4.5-17.1,5.6-34.6,22.7-39.1c17.1-4.5,34.6,5.6,39.1,22.7C302.1,147.5,292,165.1,274.9,169.6
	C274.9,169.6,274.9,169.6,274.9,169.6L274.9,169.6z"/>
</svg>
