<?xml version="1.0" encoding="utf-8"?>
<!-- Generator: Adobe Illustrator 26.4.1, SVG Export Plug-In . SVG Version: 6.00 Build 0)  -->
<svg version="1.1" id="Capa_1" xmlns="http://www.w3.org/2000/svg" xmlns:xlink="http://www.w3.org/1999/xlink" x="0px" y="0px"
	 viewBox="0 0 512 512" style="enable-background:new 0 0 512 512;" xml:space="preserve">
<style type="text/css">
	.st0{fill:#FFFFFF;}
</style>
<g>
	<path class="st0" d="M490.7,96c0-17.7-14.3-32-32-32h-80.6C364.6,25.8,328.5,0.1,288,0h-64c-40.5,0.1-76.6,25.8-90.1,64H53.3
		c-17.7,0-32,14.3-32,32l0,0c0,17.7,14.3,32,32,32H64v266.7C64,459.5,116.5,512,181.3,512h149.3c64.8,0,117.3-52.5,117.3-117.3V128
		h10.7C476.3,128,490.7,113.7,490.7,96z M384,394.7c0,29.5-23.9,53.3-53.3,53.3H181.3c-29.5,0-53.3-23.9-53.3-53.3V128h256V394.7z"
		/>
	<path class="st0" d="M202.7,384c17.7,0,32-14.3,32-32V224c0-17.7-14.3-32-32-32s-32,14.3-32,32v128C170.7,369.7,185,384,202.7,384z
		"/>
	<path class="st0" d="M309.3,384c17.7,0,32-14.3,32-32V224c0-17.7-14.3-32-32-32s-32,14.3-32,32v128
		C277.3,369.7,291.7,384,309.3,384z"/>
</g>
</svg>
